<?xml version="1.0" encoding="iso-8859-1"?>
<!-- Generator: Adobe Illustrator 25.0.0, SVG Export Plug-In . SVG Version: 6.00 Build 0)  -->
<svg version="1.1" baseProfile="basic" id="Layer_1"
	 xmlns="http://www.w3.org/2000/svg" xmlns:xlink="http://www.w3.org/1999/xlink" x="0px" y="0px" viewBox="0 0 72 72"
	 xml:space="preserve">
<path d="M36,10c7.72,0,14,6.28,14,14v8h-8v-8c0-3.309-2.691-6-6-6s-6,2.691-6,6v8h-8v-8C22,16.28,28.28,10,36,10z"/>
<path d="M17,36c0-4.418,3.582-8,8-8h22c4.418,0,8,3.582,8,8v16c0,4.418-3.582,8-8,8H25c-4.418,0-8-3.582-8-8V36z"/>
</svg>